<svg xmlns="http://www.w3.org/2000/svg" viewBox="0 0 24 24" fill="currentColor">
  <path d="M20.75 16.84l-2.75-3.54 1.96-1.96a.75.75 0 0 0-.53-1.28H15.5v-2.5a.75.75 0 0 0-.75-.75h-3.5a.75.75 0 0 0-.75.75V10H4.32a.75.75 0 0 0-.53 1.28L5.75 13.3 3 16.84a.75.75 0 0 0 .22 1.08l2.5 1.45a.75.75 0 0 0 1.08-.22l2.73-3.54 1.41 1.41-2.73 3.54a.75.75 0 0 0 .22 1.08l2.5 1.45a.75.75 0 0 0 1.08-.22l2.73-3.54 2.73 3.54a.75.75 0 0 0 1.08.22l2.5-1.45a.75.75 0 0 0 .22-1.08l-2.73-3.54 1.41-1.41 2.73 3.54a.75.75 0 0 0 1.08.22l2.5-1.45a.75.75 0 0 0 .22-1.08z"/>
</svg>