<?xml version="1.0" standalone="no"?>
<!DOCTYPE svg PUBLIC "-//W3C//DTD SVG 20010904//EN"
 "http://www.w3.org/TR/2001/REC-SVG-20010904/DTD/svg10.dtd">
<svg version="1.0" xmlns="http://www.w3.org/2000/svg"
 width="948.000000pt" height="266.000000pt" viewBox="0 0 948.000000 266.000000"
 preserveAspectRatio="xMidYMid meet">

<g transform="translate(0.000000,266.000000) scale(0.100000,-0.100000)"
fill="#000000" stroke="none">
<path d="M1095 2563 c-22 -2 -55 -6 -72 -9 l-33 -5 0 -321 0 -321 53 7 c28 3
71 6 95 6 l42 0 0 283 c0 156 2 286 5 289 3 3 221 -38 485 -91 l480 -96 0
-257 c0 -245 -1 -258 -19 -258 -10 0 -217 27 -459 60 -243 33 -450 60 -462 60
-16 0 -20 -6 -20 -30 0 -16 3 -30 8 -30 4 -1 218 -29 477 -63 l470 -62 3 -218
2 -217 -70 0 c-39 0 -111 9 -162 20 -111 25 -161 20 -226 -24 -66 -44 -94
-100 -100 -198 -3 -43 1 -98 7 -125 8 -28 10 -71 5 -110 l-6 -63 -209 0 -209
0 0 528 0 529 -82 -4 c-46 -3 -89 -6 -95 -8 -10 -4 -13 -117 -13 -525 l0 -520
-40 0 -40 0 0 520 0 520 -42 -5 c-24 -2 -69 -7 -100 -10 l-58 -6 0 -525 0
-524 -40 -80 c-22 -44 -40 -82 -40 -85 0 -3 374 -5 830 -5 457 0 830 2 830 5
0 3 -18 41 -40 85 -24 49 -40 94 -40 115 0 33 2 36 24 33 20 -2 34 -21 73 -98
53 -105 80 -130 144 -137 55 -5 105 19 137 67 21 32 23 45 23 170 0 74 1 180
2 235 2 84 -1 106 -19 140 -28 55 -92 101 -157 115 -50 10 -115 2 -209 -26
-17 -5 -18 26 -20 528 l-3 533 -505 102 c-565 113 -550 111 -605 106z m819
-1386 c55 -38 72 -126 36 -184 -55 -90 -192 -86 -240 7 -24 48 -25 81 -4 127
37 76 136 100 208 50z m558 -4 c72 -65 60 -186 -23 -229 -42 -21 -101 -20
-139 3 -33 19 -70 85 -70 122 0 31 36 94 63 111 51 32 130 29 169 -7z m-402
-18 c16 -20 64 -19 80 0 7 9 23 15 34 13 17 -2 22 -11 24 -47 2 -28 -1 -47
-10 -52 -7 -5 -50 -9 -95 -9 -89 0 -103 8 -103 62 0 44 44 64 70 33z m78 -347
c3 -16 -7 -18 -108 -18 -108 0 -110 0 -100 20 10 19 19 20 108 18 83 -3 97 -6
100 -20z m-545 -100 c2 -13 8 -31 12 -40 7 -17 -6 -18 -184 -18 l-190 0 -16
30 c-8 16 -15 34 -15 40 0 6 65 10 194 10 193 0 194 0 199 -22z m570 -13 c9
-20 17 -38 17 -40 0 -3 -72 -5 -160 -5 -88 0 -160 2 -160 5 0 2 8 20 17 40
l17 35 126 0 126 0 17 -35z"/>
<path d="M1792 1114 c-34 -23 -27 -83 11 -104 24 -13 30 -13 55 0 37 21 44 81
10 104 -28 20 -48 20 -76 0z"/>
<path d="M2340 1110 c-11 -11 -20 -31 -20 -45 0 -30 32 -65 59 -65 31 0 64 33
64 65 0 32 -33 65 -64 65 -10 0 -28 -9 -39 -20z"/>
<path d="M816 2538 c-56 -4 -92 -11 -97 -20 -5 -7 -9 -152 -9 -322 l0 -308 98
7 c53 4 98 8 100 9 1 2 1 147 0 322 l-3 319 -89 -7z"/>
<path d="M90 326 l0 -246 35 0 35 0 0 84 0 83 79 5 c131 8 191 57 191 159 0
51 -26 98 -73 133 -24 18 -46 22 -148 25 l-119 3 0 -246z m223 162 c34 -18 46
-39 47 -81 0 -67 -69 -106 -166 -95 l-29 3 -3 93 -3 92 66 0 c37 0 76 -5 88
-12z"/>
<path d="M9060 554 c0 -8 13 -29 29 -45 24 -23 38 -29 73 -29 52 0 82 19 96
60 10 27 9 30 -8 30 -11 0 -31 -12 -45 -26 -30 -30 -68 -27 -97 6 -20 24 -48
26 -48 4z"/>
<path d="M655 445 c-5 -2 -22 -6 -37 -9 -37 -8 -85 -51 -108 -97 -86 -168 116
-336 283 -236 37 22 37 24 19 40 -17 16 -22 16 -55 2 -47 -19 -88 -19 -130 1
-32 15 -67 59 -67 83 0 7 47 11 145 11 l145 0 0 40 c0 50 -19 89 -60 123 -38
33 -103 53 -135 42z m69 -69 c37 -15 66 -50 66 -79 0 -16 -10 -17 -112 -15
-107 3 -113 4 -110 23 5 27 31 55 67 71 38 17 49 17 89 0z"/>
<path d="M1563 440 c-98 -23 -160 -130 -133 -229 34 -126 182 -178 289 -101
52 38 74 81 74 146 0 124 -112 213 -230 184z m115 -77 c13 -8 30 -31 39 -51
41 -97 -42 -202 -137 -173 -54 16 -82 52 -87 108 -9 109 94 174 185 116z"/>
<path d="M3732 440 c-18 -4 -43 -17 -56 -29 -29 -27 -36 -27 -36 4 0 21 -5 25
-30 25 l-30 0 0 -220 0 -220 30 0 30 0 0 65 c0 37 4 65 10 65 6 0 10 -4 10 -9
0 -5 21 -19 46 -31 105 -51 223 19 240 142 18 127 -95 237 -214 208z m98 -79
c80 -57 59 -187 -35 -220 -73 -25 -141 23 -151 106 -13 106 100 175 186 114z"/>
<path d="M4154 440 c-89 -21 -144 -90 -144 -181 0 -66 23 -114 73 -150 74 -53
163 -48 234 14 141 124 19 361 -163 317z m80 -64 c51 -21 76 -60 76 -117 0
-42 -5 -55 -34 -87 -30 -32 -40 -37 -79 -37 -59 0 -98 28 -116 84 -22 70 17
147 84 164 32 8 34 8 69 -7z"/>
<path d="M6575 441 c-45 -11 -69 -27 -103 -65 -53 -60 -56 -156 -7 -226 69
-99 228 -100 303 -2 24 31 27 45 27 107 0 60 -4 77 -25 108 -42 61 -127 95
-195 78z m90 -71 c49 -24 68 -54 68 -109 0 -57 -30 -103 -80 -120 -37 -13 -45
-13 -80 3 -100 45 -99 188 1 232 41 17 43 17 91 -6z"/>
<path d="M7435 445 c-5 -2 -22 -6 -37 -9 -37 -8 -98 -63 -114 -103 -31 -72 -3
-181 54 -222 78 -54 181 -49 241 13 l32 33 -26 11 c-23 10 -30 9 -51 -7 -37
-29 -76 -34 -123 -15 -99 39 -97 188 4 230 36 15 96 5 124 -20 15 -14 23 -15
45 -5 l26 12 -22 25 c-13 13 -34 30 -48 37 -27 13 -89 25 -105 20z"/>
<path d="M7810 441 c-95 -30 -143 -90 -143 -179 0 -86 38 -144 115 -177 130
-54 275 63 252 204 -3 22 -15 53 -25 70 -37 61 -136 102 -199 82z m103 -73
c28 -14 57 -69 57 -108 0 -48 -33 -98 -78 -117 -80 -34 -169 36 -159 126 10
95 96 142 180 99z"/>
<path d="M8703 441 c-139 -35 -186 -210 -84 -312 63 -63 171 -75 249 -27 33
20 33 21 15 40 -18 17 -22 18 -56 3 -82 -34 -169 -1 -191 73 l-7 22 145 0 146
0 0 41 c0 105 -110 186 -217 160z m91 -65 c36 -15 66 -50 66 -78 0 -16 -11
-18 -109 -18 -61 0 -112 4 -115 8 -9 16 34 73 67 87 41 18 50 18 91 1z"/>
<path d="M930 260 l0 -180 35 0 34 0 3 91 3 90 63 -85 c35 -47 67 -86 71 -86
4 0 36 39 71 87 l65 87 3 -92 3 -92 34 0 35 0 0 181 c0 105 -4 178 -9 175 -5
-4 -50 -60 -100 -126 -50 -65 -95 -121 -99 -124 -4 -3 -52 54 -106 125 -54 71
-100 129 -102 129 -2 0 -4 -81 -4 -180z"/>
<path d="M1870 260 l0 -180 35 0 35 0 0 70 0 70 90 0 90 0 0 -70 0 -70 35 0
35 0 0 180 0 180 -35 0 -35 0 0 -80 0 -80 -90 0 -90 0 0 80 0 80 -35 0 -35 0
0 -180z"/>
<path d="M2260 410 c0 -29 1 -30 50 -30 l50 0 0 -150 0 -150 35 0 35 0 0 150
0 150 50 0 c49 0 50 1 50 30 l0 30 -135 0 -135 0 0 -30z"/>
<path d="M2810 260 c0 -99 3 -180 6 -180 4 0 62 52 130 116 l124 116 0 -116 0
-116 35 0 35 0 0 182 0 181 -22 -20 c-13 -11 -68 -61 -123 -112 -55 -50 -103
-91 -107 -91 -5 0 -8 50 -8 110 l0 110 -35 0 -35 0 0 -180z"/>
<path d="M3230 260 l0 -180 35 0 35 0 0 150 0 150 100 0 100 0 0 30 0 30 -135
0 -135 0 0 -180z"/>
<path d="M4450 261 l0 -181 115 0 c169 0 215 23 215 106 0 29 -7 43 -33 67
l-34 29 25 25 c29 29 24 64 -14 103 -23 24 -31 25 -149 28 l-125 4 0 -181z
m224 104 c15 -16 11 -44 -8 -57 -6 -4 -41 -8 -78 -8 l-68 0 0 40 0 40 69 0
c49 0 74 -5 85 -15z m15 -135 c24 -12 29 -58 9 -78 -7 -7 -44 -12 -95 -12
l-83 0 0 56 0 57 74 -6 c41 -3 84 -10 95 -17z"/>
<path d="M4860 259 l0 -181 129 4 c113 3 133 6 158 24 36 27 51 81 33 124 -19
45 -61 63 -162 68 l-88 4 0 69 0 69 -35 0 -35 0 0 -181z m244 -39 c22 -17 20
-57 -3 -70 -11 -5 -54 -10 -95 -10 l-76 0 0 51 0 52 79 -5 c44 -3 87 -10 95
-18z"/>
<path d="M5260 260 l0 -180 35 0 35 0 0 180 0 180 -35 0 -35 0 0 -180z"/>
<path d="M5429 413 c11 -16 39 -55 64 -88 l44 -60 -60 -80 c-33 -44 -65 -86
-70 -92 -7 -10 0 -13 31 -13 38 0 43 4 88 65 26 35 51 62 55 59 5 -2 27 -32
50 -64 39 -56 45 -60 81 -60 45 0 47 -5 -34 102 -32 42 -58 79 -58 83 0 3 24
38 53 78 76 102 74 97 30 97 -34 0 -41 -5 -72 -50 -54 -79 -54 -79 -102 -10
-39 56 -44 60 -81 60 l-39 0 20 -27z"/>
<path d="M6040 260 l0 -180 35 0 35 0 0 59 c0 41 5 62 16 71 13 12 25 3 87
-58 68 -68 75 -72 117 -72 l45 0 -95 95 -95 95 85 85 85 85 -45 0 c-42 0 -49
-4 -122 -77 l-78 -78 0 78 0 77 -35 0 -35 0 0 -180z"/>
<path d="M6870 260 l0 -180 35 0 35 0 0 70 0 70 95 0 95 0 0 -70 0 -70 35 0
35 0 0 180 0 180 -35 0 -34 0 -3 -77 -3 -78 -90 0 -90 0 -3 78 -3 77 -34 0
-35 0 0 -180z"/>
<path d="M8160 291 c0 -158 -3 -166 -49 -154 -18 5 -21 1 -21 -26 0 -27 4 -31
28 -33 105 -6 112 5 112 169 l0 133 95 0 95 0 0 -150 0 -150 35 0 35 0 0 180
0 180 -165 0 -165 0 0 -149z"/>
<path d="M9000 258 l0 -181 23 20 c12 11 67 61 122 112 55 50 103 91 107 91 5
0 8 -49 8 -110 l0 -110 35 0 35 0 0 180 c0 99 -3 180 -6 180 -4 0 -62 -52
-130 -116 l-124 -116 0 116 0 116 -35 0 -35 0 0 -182z"/>
</g>
</svg>
